<svg id="Mark_s_List" data-name="Mark&apos;s List" xmlns="http://www.w3.org/2000/svg" viewBox="0 0 100 100"><defs><style>.cls-1{fill:#4a8cca;}</style></defs><title>SVG Icon</title><path class="cls-1" d="M76.3,7a44.3,44.3,0,0,0-4.4-2.4C59.4,28.6,36.7,57.1,6.7,73.3a44.9,44.9,0,0,0,6.5,10.5C39,66,62.9,36.4,76.3,7"/><path class="cls-1" d="M70.8,4.1A51.7,51.7,0,0,0,50,0C21.9,0,2.1,21.7,2.1,50.2A61,61,0,0,0,3.5,63.8C32.3,52.1,57.8,26.3,70.8,4.1"/><path class="cls-1" d="M77.4,7.7c-14.7,36.2-32.7,61.9-55.6,84C29.5,97,39.1,100,50,100c28.1,0,47.9-21.8,47.9-50.4,0-18.9-7.8-33.6-20.5-41.9"/></svg>