<svg width="128" height="128" xmlns="http://www.w3.org/2000/svg" class="svg replaced-svg"><path fill="none" d="M-1-1h582v402H-1z"/><g><path fill="#757575" d="M4.662 89.298c-1.976-.356-2.057-.426-2.057-1.757v-1.176l.742.22c.41.12 1.812.224 3.12.23 2.074.01 2.503-.045 3.386-.445 1.988-.9 3.1-2.588 3.442-5.224.108-.83.19-10.105.194-21.695l.005-20.246h2.575l-.004 21.04c-.004 22.714.006 22.497-1.054 24.768-.945 2.027-2.628 3.39-4.952 4.017-1.337.36-4.124.497-5.398.268zm33.19-9.796c-3-.6-5.13-1.686-7.02-3.576-1.354-1.355-2.298-2.836-2.903-4.557-.94-2.675-.97-3.218-.97-18.124V39.204h2.542l.08 14.208c.077 13.81.092 14.25.506 15.755 1.506 5.458 5.57 8.262 11.963 8.25 5.183-.008 8.873-1.983 10.72-5.738 1.312-2.67 1.31-2.66 1.315-18.367l.003-14.11H56.86v13.55c0 8.473-.078 14.13-.21 15.1-1.038 7.632-6.52 11.978-15.036 11.923-1.362-.01-3.055-.132-3.763-.274zm80.54.08c-1.835-.432-3.26-1.493-4.028-3-1.018-1.993-1.063-2.59-1.066-14.055l-.003-10.637-2.228-.056-2.227-.056-.06-.725c-.068-.808-.316-.68 3.258-1.666l1.218-.336.656-3.338.655-3.34h1.302v7.129h8.93l-.06 1.14-.06 1.138-4.416.054-4.417.053.07 10.64c.06 9.547.103 10.747.42 11.697.426 1.284 1.663 2.69 2.667 3.03.82.277 2.802.316 4.945.094l1.445-.15-.06 1.054-.06 1.052-1.09.23c-1.288.27-4.735.3-5.794.05zm-51.235-15.23v-14.85h1.074c1.2 0 1.148-.08 1.408 2.078.273 2.27.14 2.224 1.74.615 2.342-2.355 4.603-3.155 8.947-3.166 2.806-.008 4.147.27 5.896 1.216 1.24.67 2.626 2.17 3.235 3.502 1.008 2.203 1.06 2.927 1.065 14.614l.004 10.84H87.95l-.004-10.642c-.003-11.276-.06-12.094-.97-13.876-.556-1.092-1.963-2.292-3.3-2.817-.99-.39-1.54-.462-3.548-.468-2.66-.01-3.99.25-5.7 1.104-2.136 1.07-3.325 2.696-4.152 5.68-.396 1.428-.424 2.07-.497 11.267l-.078 9.753h-2.544v-14.85zm33.267 0v-14.85H103v29.7h-2.573v-14.85zm.295-20.92c-.7-.7-.924-2.513-.473-3.806.39-1.123 1.734-1.392 2.56-.514.955 1.017.705 3.856-.392 4.443-.566.303-1.325.247-1.696-.124z"/></g></svg>